<?xml version="1.0" encoding="UTF-8"?>
<svg version="1.1" xmlns="http://www.w3.org/2000/svg" width="747" height="212">
<path d="M0 0 C246.51 0 493.02 0 747 0 C747 69.96 747 139.92 747 212 C500.49 212 253.98 212 0 212 C0 142.04 0 72.08 0 0 Z " fill="#FEFEFE" transform="translate(0,0)"/>
<path d="M0 0 C6.69828077 3.72613786 10.68858317 8.2114594 14.625 14.6875 C16.73972615 22.27563499 16.83707423 31.1987143 13.6875 38.5 C8.20502679 47.21232902 1.80895535 52.15526131 -8.3125 54.5 C-17.51821319 55.10980521 -24.1288948 52.54197787 -31.28125 46.96484375 C-36.83597673 41.98677297 -39.67004458 36.1362762 -40.69140625 28.765625 C-41.04137224 20.77285334 -38.89376388 13.60734896 -34.0625 7.1875 C-24.47032324 -2.18667274 -12.58270685 -5.8171308 0 0 Z " fill="#F5F8FC" transform="translate(175.3125,61.5)"/>
<path d="M0 0 C27.08368201 0 27.08368201 0 33.4375 4.8671875 C33.953125 5.52976562 34.46875 6.19234375 35 6.875 C35.53625 7.53242187 36.0725 8.18984375 36.625 8.8671875 C41.19389112 15.95416065 41.23538461 24.82146707 40 33 C38.55177055 36.40987805 36.76095963 38.5685105 34 41 C33.21625 41.78375 32.4325 42.5675 31.625 43.375 C22.18464933 49.2190266 10.48273128 47 0 47 C0 31.49 0 15.98 0 0 Z " fill="#0950AF" transform="translate(203,95)"/>
<path d="M0 0 C3.96 0 7.92 0 12 0 C15.96 11.22 19.92 22.44 24 34 C27.57834591 23.18577333 27.57834591 23.18577333 31.15014648 12.36938477 C31.59855748 11.01831288 32.04719116 9.66731488 32.49609375 8.31640625 C32.72848755 7.60899292 32.96088135 6.90157959 33.20031738 6.17272949 C34.8859282 1.1140718 34.8859282 1.1140718 36 0 C39.96 0 43.92 0 48 0 C48 15.51 48 31.02 48 47 C45.03 47 42.06 47 39 47 C38.67 37.1 38.34 27.2 38 17 C37.2575 19.43375 36.515 21.8675 35.75 24.375 C33.34363658 32.14891921 30.71195225 39.73961763 27 47 C24.69 47 22.38 47 20 47 C15.65314999 37.19073669 12.32204109 27.19789357 9 17 C8.67 26.9 8.34 36.8 8 47 C5.36 47 2.72 47 0 47 C0 31.49 0 15.98 0 0 Z " fill="#0850AF" transform="translate(524,95)"/>
<path d="M0 0 C4.06966965 1.61065476 8.28146105 2.31380581 12.5859375 3.0234375 C12.5859375 4.3434375 12.5859375 5.6634375 12.5859375 7.0234375 C7.35368959 7.28802652 3.8238535 6.56375599 -0.9765625 4.5234375 C-8.64193349 1.65505241 -16.72956827 0.11569412 -24.70703125 2.79296875 C-26.80280257 3.84710639 -26.80280257 3.84710639 -29.4140625 6.0234375 C-30.1565625 6.5803125 -30.8990625 7.1371875 -31.6640625 7.7109375 C-36.34845599 13.90102889 -36.94192422 21.43561322 -36.8515625 28.9609375 C-36.84129028 30.27698975 -36.84129028 30.27698975 -36.83081055 31.61962891 C-36.59518272 41.11357711 -34.18442762 48.25307238 -27.4140625 55.0234375 C-26.23146292 55.73992238 -25.04369653 56.44793139 -23.8515625 57.1484375 C-18.72192597 60.67160038 -17.94839571 66.28987655 -16.4140625 72.0234375 C-15.7872403 74.24914005 -15.15017374 76.47153918 -14.50634766 78.69238281 C-14.07850266 80.17468545 -13.65979493 81.65966425 -13.25146484 83.14746094 C-12.01773196 87.50984261 -10.6931079 91.7443921 -7.4140625 95.0234375 C-3.34573819 95.53649937 -3.34573819 95.53649937 0.5859375 95.0234375 C3.49998396 91.13232043 4.05667505 87.94090682 4.39453125 83.1484375 C4.50216797 81.83359375 4.60980469 80.51875 4.72070312 79.1640625 C4.8752118 77.0908459 5.02385659 75.01737527 5.16723633 72.94335938 C5.31127804 70.92725315 5.4776566 68.91278235 5.64453125 66.8984375 C5.73017334 65.69960937 5.81581543 64.50078125 5.90405273 63.265625 C6.6971982 59.49442135 7.81001919 57.674613 10.5859375 55.0234375 C14.2109375 55.0234375 14.2109375 55.0234375 17.5859375 56.0234375 C19.96723036 59.59537679 20.00517095 61.66693755 20.33203125 65.921875 C20.44837554 67.30209955 20.56491822 68.68230738 20.68164062 70.0625 C20.854593 72.2301698 21.02340934 74.39806597 21.18774414 76.56640625 C21.34997291 78.66510654 21.52776608 80.76207119 21.70703125 82.859375 C21.85289673 84.73955322 21.85289673 84.73955322 22.00170898 86.65771484 C22.61063557 90.16572234 23.37265628 92.24536103 25.5859375 95.0234375 C29.12637682 95.53841049 31.46189462 95.62689341 34.65234375 93.9140625 C37.31761378 91.30802069 37.97822101 88.8211241 39.0859375 85.2734375 C39.40111328 84.28947998 39.40111328 84.28947998 39.72265625 83.28564453 C40.80498127 79.84106316 41.76541731 76.38356118 42.6171875 72.875 C42.8637207 71.87484863 42.8637207 71.87484863 43.11523438 70.85449219 C43.56243302 68.99611275 43.98124225 67.13096917 44.3984375 65.265625 C46.24733555 60.21764678 49.75790976 57.55124616 54.0234375 54.5234375 C59.11769424 50.30056678 61.16042976 44.01168739 63.5859375 38.0234375 C64.9059375 38.0234375 66.2259375 38.0234375 67.5859375 38.0234375 C65.19232021 48.26979923 60.40507319 56.02278848 51.5859375 62.0234375 C50.9259375 62.0234375 50.2659375 62.0234375 49.5859375 62.0234375 C49.46863281 63.00699219 49.35132813 63.99054688 49.23046875 65.00390625 C48.19855337 72.19478414 45.77529296 79.11674188 43.5859375 86.0234375 C43.08707031 87.60125 43.08707031 87.60125 42.578125 89.2109375 C41.13683382 93.28046555 39.99805437 95.63005322 36.8359375 98.6484375 C32.87031102 100.32620255 29.81738471 101.00122212 25.5859375 100.0234375 C21.26792425 97.70274316 19.0676494 94.63090243 17.5859375 90.0234375 C17.23186301 87.6827264 16.95503346 85.32968978 16.734375 82.97265625 C16.67061676 82.31384964 16.60685852 81.65504303 16.54116821 80.97627258 C16.3407261 78.88842432 16.15067928 76.79978259 15.9609375 74.7109375 C15.82620831 73.28834618 15.69079866 71.86581913 15.5546875 70.44335938 C15.22389494 66.9707608 14.90241291 63.49737353 14.5859375 60.0234375 C13.5959375 60.0234375 12.6059375 60.0234375 11.5859375 60.0234375 C11.51076904 60.90080566 11.43560059 61.77817383 11.3581543 62.68212891 C11.0714974 65.95950779 10.77389609 69.23551805 10.46899414 72.51123047 C10.33964179 73.92490148 10.21457152 75.33897149 10.09399414 76.75341797 C9.91917227 78.7951647 9.72862342 80.8349456 9.53515625 82.875 C9.42518311 84.10041504 9.31520996 85.32583008 9.2019043 86.58837891 C8.34080914 91.39044344 6.69770357 94.8163772 3.3984375 98.3984375 C-0.2573631 100.51067784 -3.34044747 100.80621058 -7.4140625 100.0234375 C-12.48957803 97.53356196 -14.19808474 95.10715118 -16.4140625 90.0234375 C-17.5679466 86.57437042 -18.56211991 83.08869397 -19.5390625 79.5859375 C-19.80332031 78.67005859 -20.06757812 77.75417969 -20.33984375 76.81054688 C-21.4583333 72.85609015 -22.47658959 69.08753169 -22.84375 64.98828125 C-23.06846675 61.9475831 -23.06846675 61.9475831 -25.23046875 60.77734375 C-25.95105469 60.52855469 -26.67164062 60.27976563 -27.4140625 60.0234375 C-34.27681799 55.09808018 -39.94779354 48.58166039 -41.4140625 40.0234375 C-42.55520816 14.73246505 -42.55520816 14.73246505 -35.28515625 5.0390625 C-25.59028298 -5.40468407 -12.57169527 -5.32315025 0 0 Z " fill="#1559B3" transform="translate(120.4140625,71.9765625)"/>
<path d="M0 0 C3.63 0 7.26 0 11 0 C13.83902735 3.09654271 15.41326949 5.26907841 17.3125 8.875 C17.81249512 9.74237793 18.31249023 10.60975586 18.82763672 11.50341797 C20.2526897 13.98482344 21.62750974 16.48928302 23 19 C24.18665624 21.05579448 25.40232994 23.09019144 26.625 25.125 C27.05039062 25.87007812 27.47578125 26.61515625 27.9140625 27.3828125 C28.91737315 29.16420276 28.91737315 29.16420276 31 30 C31 20.1 31 10.2 31 0 C33.64 0 36.28 0 39 0 C39 15.51 39 31.02 39 47 C30 47 30 47 28.05029297 45.41577148 C27.65986816 44.67915283 27.26944336 43.94253418 26.8671875 43.18359375 C26.40022461 42.36101074 25.93326172 41.53842773 25.45214844 40.69091797 C24.97293945 39.80291504 24.49373047 38.91491211 24 38 C22.86745779 36.19247844 21.72393959 34.39179409 20.5703125 32.59765625 C19.42024149 30.75362194 18.27181509 28.90856095 17.125 27.0625 C16.53203125 26.11826172 15.9390625 25.17402344 15.328125 24.20117188 C14.76867187 23.30076172 14.20921875 22.40035156 13.6328125 21.47265625 C13.12637207 20.66062744 12.61993164 19.84859863 12.09814453 19.01196289 C11 17 11 17 11 15 C10.34 15 9.68 15 9 15 C9 25.56 9 36.12 9 47 C6.03 47 3.06 47 0 47 C0 31.49 0 15.98 0 0 Z " fill="#054EAE" transform="translate(293,95)"/>
<path d="M0 0 C4.29 0 8.58 0 13 0 C13.38671875 1.25554687 13.7734375 2.51109375 14.171875 3.8046875 C17.71293822 15.22641679 17.71293822 15.22641679 21.98828125 26.38671875 C23.40325758 30.041619 24.57844458 33.76100211 25.75 37.5 C25.97308838 38.20793701 26.19617676 38.91587402 26.42602539 39.64526367 C28 44.74350546 28 44.74350546 28 47 C25.03 47 22.06 47 19 47 C16 40.5 16 40.5 16 36 C9.73 36.33 3.46 36.66 -3 37 C-3.99 40.3 -4.98 43.6 -6 47 C-9.3 47 -12.6 47 -16 47 C-10.8229522 31.27945242 -5.41315417 15.64037826 0 0 Z " fill="#0950B0" transform="translate(394,95)"/>
<path d="M0 0 C10.23 0 20.46 0 31 0 C31 2.64 31 5.28 31 8 C23.74 8 16.48 8 9 8 C9 11.63 9 15.26 9 19 C15.27 19 21.54 19 28 19 C28 21.64 28 24.28 28 27 C21.73 27 15.46 27 9 27 C9 30.96 9 34.92 9 39 C16.59 39 24.18 39 32 39 C32 41.64 32 44.28 32 47 C21.44 47 10.88 47 0 47 C0 31.49 0 15.98 0 0 Z " fill="#0B51B0" transform="translate(253,95)"/>
<path d="M0 0 C10.23 0 20.46 0 31 0 C31 2.64 31 5.28 31 8 C23.74 8 16.48 8 9 8 C9 11.63 9 15.26 9 19 C15.27 19 21.54 19 28 19 C28 21.64 28 24.28 28 27 C21.73 27 15.46 27 9 27 C9 30.96 9 34.92 9 39 C16.26 39 23.52 39 31 39 C31 41.64 31 44.28 31 47 C20.77 47 10.54 47 0 47 C0 31.49 0 15.98 0 0 Z " fill="#0A51B0" transform="translate(644,95)"/>
<path d="M0 0 C1.2684375 -0.00773437 2.536875 -0.01546875 3.84375 -0.0234375 C7.73563251 0.4006779 10.18147771 1.33398404 13.5 3.375 C14.5625 5.3125 14.5625 5.3125 14.5 7.375 C13.0625 9.625 13.0625 9.625 11.5 11.375 C10.736875 11.065625 9.97375 10.75625 9.1875 10.4375 C5.83124915 9.11061013 3.09873684 8.22157895 -0.5 8.1875 C-1.180625 8.17332031 -1.86125 8.15914063 -2.5625 8.14453125 C-4.82614132 8.26559589 -4.82614132 8.26559589 -7.5 10.375 C-7.7502157 13.45865871 -7.7502157 13.45865871 -7.5 16.375 C-5.87191406 16.73851562 -5.87191406 16.73851562 -4.2109375 17.109375 C-2.76547493 17.44727534 -1.32017061 17.78585313 0.125 18.125 C1.19427734 18.36089844 1.19427734 18.36089844 2.28515625 18.6015625 C8.30216758 20.03681291 12.95145306 22.05217959 16.5 27.375 C17.07092896 32.16487155 17.10816123 36.78702344 15.375 41.3125 C11.8826848 45.15404672 8.83000509 47.20472717 3.625 47.87109375 C2.24986192 47.8724059 0.87455543 47.85254814 -0.5 47.8125 C-1.18578125 47.81958984 -1.8715625 47.82667969 -2.578125 47.83398438 C-9.08491675 47.75327036 -13.53671622 45.38380613 -18.5 41.375 C-17.90072174 38.01904172 -16.65377564 35.99698774 -14.5 33.375 C-11.958623 34.54794323 -9.98561231 35.7724814 -7.75 37.5 C-3.49784184 39.95316817 -1.34649234 39.85170416 3.5 39.375 C4.49 38.715 5.48 38.055 6.5 37.375 C6.7502157 34.29134129 6.7502157 34.29134129 6.5 31.375 C3.02418452 29.41428357 -0.10508145 28.16903293 -4 27.4375 C-9.52081508 26.29430092 -13.18316748 24.35024878 -16.375 19.5625 C-17.69527938 15.82170843 -17.99277138 13.31717103 -17.5 9.375 C-13.66232048 1.69964095 -8.26422103 -0.05039159 0 0 Z " fill="#074FAF" transform="translate(497.5,94.625)"/>
<path d="M0 0 C1.08410156 0.00257812 2.16820312 0.00515625 3.28515625 0.0078125 C4.90744141 0.00394531 4.90744141 0.00394531 6.5625 0 C9.34765625 0.1328125 9.34765625 0.1328125 11.34765625 1.1328125 C11.34765625 4.1028125 11.34765625 7.0728125 11.34765625 10.1328125 C14.31765625 10.1328125 17.28765625 10.1328125 20.34765625 10.1328125 C20.34765625 15.0828125 20.34765625 20.0328125 20.34765625 25.1328125 C17.37765625 25.1328125 14.40765625 25.1328125 11.34765625 25.1328125 C11.36828125 26.4321875 11.38890625 27.7315625 11.41015625 29.0703125 C11.43165079 30.42446883 11.41913824 31.78037333 11.34765625 33.1328125 C10.34765625 34.1328125 10.34765625 34.1328125 7.1875 34.23046875 C5.89972656 34.21886719 4.61195313 34.20726562 3.28515625 34.1953125 C1.99480469 34.18628906 0.70445312 34.17726562 -0.625 34.16796875 C-1.62402344 34.15636719 -2.62304688 34.14476562 -3.65234375 34.1328125 C-3.65234375 31.1628125 -3.65234375 28.1928125 -3.65234375 25.1328125 C-5.84890625 25.16375 -5.84890625 25.16375 -8.08984375 25.1953125 C-9.61066893 25.21673257 -11.13306337 25.20461214 -12.65234375 25.1328125 C-13.65234375 24.1328125 -13.65234375 24.1328125 -13.78515625 21.2265625 C-13.78257812 20.040625 -13.78 18.8546875 -13.77734375 17.6328125 C-13.77992188 16.446875 -13.7825 15.2609375 -13.78515625 14.0390625 C-13.65234375 11.1328125 -13.65234375 11.1328125 -12.65234375 10.1328125 C-11.13306337 10.06101286 -9.61066893 10.04889243 -8.08984375 10.0703125 C-7.26355469 10.07933594 -6.43726563 10.08835937 -5.5859375 10.09765625 C-4.94785156 10.10925781 -4.30976563 10.12085937 -3.65234375 10.1328125 C-3.66394531 9.49472656 -3.67554688 8.85664062 -3.6875 8.19921875 C-3.69652344 7.37292969 -3.70554688 6.54664062 -3.71484375 5.6953125 C-3.72644531 4.87160156 -3.73804688 4.04789062 -3.75 3.19921875 C-3.60117691 0.05012212 -3.17338831 0.1589031 0 0 Z " fill="#1256B2" transform="translate(159.65234375,69.8671875)"/>
<path d="M0 0 C11.88 0 23.76 0 36 0 C36 2.64 36 5.28 36 8 C31.71 8 27.42 8 23 8 C23 20.87 23 33.74 23 47 C19.7 47 16.4 47 13 47 C13 34.13 13 21.26 13 8 C8.71 8 4.42 8 0 8 C0 5.36 0 2.72 0 0 Z " fill="#1055B2" transform="translate(340,95)"/>
<path d="M0 0 C6.69828077 3.72613786 10.68858317 8.2114594 14.625 14.6875 C16.73972615 22.27563499 16.83707423 31.1987143 13.6875 38.5 C8.20502679 47.21232902 1.80895535 52.15526131 -8.3125 54.5 C-17.51821319 55.10980521 -24.1288948 52.54197787 -31.28125 46.96484375 C-36.83597673 41.98677297 -39.67004458 36.1362762 -40.69140625 28.765625 C-41.04137224 20.77285334 -38.89376388 13.60734896 -34.0625 7.1875 C-24.47032324 -2.18667274 -12.58270685 -5.8171308 0 0 Z M-30.76953125 9.5625 C-35.54826937 15.56314331 -37.05037514 20.74509643 -36.7578125 28.46875 C-35.6681512 35.88609358 -32.07518341 41.80316042 -26.1171875 46.31640625 C-19.75772036 50.48722561 -13.77986029 51.70279629 -6.3125 50.5 C1.815765 47.65024972 6.85636136 43.17689995 10.6875 35.5 C12.83726608 29.05070177 12.98364854 20.374743 10.25 14.0625 C6.64560631 8.07663191 0.26201981 3.62764368 -6.3125 1.5 C-16.24522778 0.35677124 -23.95737125 2.08003593 -30.76953125 9.5625 Z " fill="#1458B3" transform="translate(175.3125,61.5)"/>
<path d="M0 0 C14.84101382 0 14.84101382 0 19.78515625 4.6953125 C21.53832055 8.02125121 21.47452454 11.20620482 21.4375 14.875 C21.4674707 15.91720703 21.4674707 15.91720703 21.49804688 16.98046875 C21.49319703 22.13100926 20.31528765 25.09623423 17 29 C13 31 13 31 0 31 C0 20.77 0 10.54 0 0 Z " fill="#FCFDFE" transform="translate(212,103)"/>
<path d="M0 0 C2.97 0 5.94 0 9 0 C9 12.87 9 25.74 9 39 C15.93 39 22.86 39 30 39 C30 41.64 30 44.28 30 47 C20.1 47 10.2 47 0 47 C0 31.49 0 15.98 0 0 Z " fill="#0B52B0" transform="translate(606,95)"/>
<path d="M0 0 C2.97 0 5.94 0 9 0 C9 12.87 9 25.74 9 39 C15.93 39 22.86 39 30 39 C30 41.64 30 44.28 30 47 C20.1 47 10.2 47 0 47 C0 31.49 0 15.98 0 0 Z " fill="#0B52B0" transform="translate(430,95)"/>
<path d="M0 0 C2.97 0 5.94 0 9 0 C9 15.51 9 31.02 9 47 C6.03 47 3.06 47 0 47 C0 31.49 0 15.98 0 0 Z " fill="#064EAF" transform="translate(584,95)"/>
<path d="M0 0 C2.31 0 4.62 0 7 0 C7.33 2.97 7.66 5.94 8 9 C10.64 9.33 13.28 9.66 16 10 C16 12.31 16 14.62 16 17 C13.03 17 10.06 17 7 17 C7 20.3 7 23.6 7 27 C4.36 27 1.72 27 -1 27 C-1.33 24.03 -1.66 21.06 -2 18 C-4.64 17.67 -7.28 17.34 -10 17 C-10 14.69 -10 12.38 -10 10 C-7.94921875 9.77213542 -5.8984375 9.54427083 -3.84765625 9.31640625 C-1.98859771 9.18113386 -1.98859771 9.18113386 -1 8 C-0.76924918 6.65252916 -0.58846937 5.29622435 -0.4375 3.9375 C-0.293125 2.638125 -0.14875 1.33875 0 0 Z " fill="#F6F9FC" transform="translate(160,74)"/>
<path d="M0 0 C10.06312625 -0.60621242 10.06312625 -0.60621242 14.1875 2.0625 C16.46334187 5.75093338 16.69758716 7.73696737 16 12 C14.13291495 14.36497439 12.67938569 15.66030715 10 17 C8.29297265 17.06996014 6.58331997 17.08440154 4.875 17.0625 C3.26625 17.041875 1.6575 17.02125 0 17 C0 11.39 0 5.78 0 0 Z " fill="#807D7E" transform="translate(216,158)"/>
<path d="M0 0 C1.65 0 3.3 0 5 0 C5 1.65 5 3.3 5 5 C6.36125 4.62875 6.36125 4.62875 7.75 4.25 C11 4 11 4 13.375 5.5625 C15.44937658 8.67406486 15.53621874 10.32307147 15 14 C13.859375 16.171875 13.859375 16.171875 12 18 C9.08203125 18.390625 9.08203125 18.390625 5.8125 18.25 C2.9353125 18.12625 2.9353125 18.12625 0 18 C0 12.06 0 6.12 0 0 Z " fill="#817F7F" transform="translate(281,157)"/>
<path d="M0 0 C1.32 0 2.64 0 4 0 C4 5.94 4 11.88 4 18 C-6.46375858 18.36930913 -6.46375858 18.36930913 -8.83203125 16.73828125 C-10.88498716 13.68287864 -10.53788187 10.53675748 -10 7 C-8.8125 5 -8.8125 5 -7 4 C-4.375 3.75 -4.375 3.75 -2 4 C-1.67 4.33 -1.34 4.66 -1 5 C-0.67 3.35 -0.34 1.7 0 0 Z " fill="#78767C" transform="translate(351,157)"/>
<path d="M0 0 C0 4.62 0 9.24 0 14 C-1.918125 14.0825 -3.83625 14.165 -5.8125 14.25 C-7.43091797 14.31960937 -7.43091797 14.31960937 -9.08203125 14.390625 C-12 14 -12 14 -13.859375 12.171875 C-15.41887138 9.20242298 -15.48251113 7.30864772 -15 4 C-11.79886041 -1.7925383 -5.79465987 -0.27593618 0 0 Z " fill="#807F80" transform="translate(393,161)"/>
<path d="M0 0 C0 4.62 0 9.24 0 14 C-1.918125 14.0825 -3.83625 14.165 -5.8125 14.25 C-7.43091797 14.31960937 -7.43091797 14.31960937 -9.08203125 14.390625 C-12 14 -12 14 -13.859375 12.171875 C-15.41887138 9.20242298 -15.48251113 7.30864772 -15 4 C-11.79886041 -1.7925383 -5.79465987 -0.27593618 0 0 Z " fill="#808081" transform="translate(328,161)"/>
<path d="M0 0 C0 4.62 0 9.24 0 14 C-10.46375858 14.36930913 -10.46375858 14.36930913 -12.83203125 12.73828125 C-14.22906855 10.65907858 -14.40329052 9.48956538 -14.375 7 C-14.38273438 6.319375 -14.39046875 5.63875 -14.3984375 4.9375 C-12.93868297 -2.16091419 -5.59376022 -0.19742683 0 0 Z " fill="#79777D" transform="translate(248,161)"/>
<path d="M0 0 C1.9375 1.1875 1.9375 1.1875 3 3 C3.53520313 6.59350675 3.44814771 8.31881548 1.4375 11.375 C-1.8994213 13.5996142 -4.06905293 13.50030235 -8 13 C-9.9375 12 -9.9375 12 -11 10 C-11.46000079 7.23999526 -11.50420748 4.75595226 -11 2 C-7.94260267 -2.03576448 -4.55750868 -1.16009312 0 0 Z " fill="#7D7C7E" transform="translate(309,162)"/>
<path d="M0 0 C8.3984375 -0.1953125 8.3984375 -0.1953125 11 0 C13 2 13 2 13.375 4.9375 C13 8 13 8 11.25 9.875 C9 11 9 11 5 11 C5 12.98 5 14.96 5 17 C3.35 17 1.7 17 0 17 C0 11.39 0 5.78 0 0 Z " fill="#8D8A87" transform="translate(363,158)"/>
<path d="M0 0 C1.32 0 2.64 0 4 0 C4 1.65 4 3.3 4 5 C5.6396875 4.6596875 5.6396875 4.6596875 7.3125 4.3125 C11 4 11 4 12.71875 5.125 C14.49492035 7.72427368 14.29745248 9.57217974 14.1875 12.6875 C14.16042969 13.68136719 14.13335937 14.67523438 14.10546875 15.69921875 C14.07066406 16.45847656 14.03585937 17.21773437 14 18 C12.35 18 10.7 18 9 18 C9 14.7 9 11.4 9 8 C7.68 8.33 6.36 8.66 5 9 C4.67 11.97 4.34 14.94 4 18 C2.68 18 1.36 18 0 18 C0 12.06 0 6.12 0 0 Z " fill="#7D7474" transform="translate(265,157)"/>
<path d="M0 0 C2.375 1.75 2.375 1.75 4 4 C4 5.32 4 6.64 4 8 C1.03 8 -1.94 8 -5 8 C-4.67 8.66 -4.34 9.32 -4 10 C-0.535 9.505 -0.535 9.505 3 9 C2.625 10.9375 2.625 10.9375 2 13 C-0.84083641 14.42041821 -2.85477278 14.31452272 -6 14 C-8.375 12.375 -8.375 12.375 -10 10 C-10.61195145 6.3282913 -10.48706506 4.71186432 -8.375 1.625 C-5.28813568 -0.48706506 -3.6717087 -0.61195145 0 0 Z " fill="#858486" transform="translate(421,161)"/>
<path d="M0 0 C10.625 -0.25 10.625 -0.25 14 2 C14.29296875 4.8203125 14.29296875 4.8203125 14.1875 8.125 C14.16042969 9.22070312 14.13335937 10.31640625 14.10546875 11.4453125 C14.07066406 12.28835937 14.03585937 13.13140625 14 14 C12.68 14 11.36 14 10 14 C9.67 11.03 9.34 8.06 9 5 C7.68 4.67 6.36 4.34 5 4 C5 7.3 5 10.6 5 14 C3.35 14 1.7 14 0 14 C0 9.38 0 4.76 0 0 Z " fill="#8A8582" transform="translate(395,161)"/>
<path d="M0 0 C0.66 0 1.32 0 2 0 C2.84124316 2.24732102 3.67314832 4.49738785 4.5 6.75 C4.73847656 7.38421875 4.97695313 8.0184375 5.22265625 8.671875 C6.44801758 12.03286607 7 14.36871587 7 18 C3.04 18 -0.92 18 -5 18 C-1.85714286 5.14285714 -1.85714286 5.14285714 0 0 Z " fill="#ECF1F9" transform="translate(399,105)"/>
<path d="M0 0 C1.32 0.33 2.64 0.66 4 1 C3.7834375 1.85658203 3.7834375 1.85658203 3.5625 2.73046875 C1.30817167 12.57750012 0.49693922 21.79809318 5 31 C4.6875 33.4375 4.6875 33.4375 4 35 C3.34 35 2.68 35 2 35 C-1.81483038 28.56153134 -2.57518076 23.79222408 -2.375 16.375 C-2.37371094 15.45976563 -2.37242188 14.54453125 -2.37109375 13.6015625 C-2.30721498 8.68999456 -1.91100252 4.60169407 0 0 Z " fill="#0F54B1" transform="translate(89,85)"/>
<path d="M0 0 C3.0625 0.25 3.0625 0.25 6.0625 2.25 C6.0625 3.24 6.0625 4.23 6.0625 5.25 C4.7425 5.25 3.4225 5.25 2.0625 5.25 C2.0625 4.59 2.0625 3.93 2.0625 3.25 C1.0725 3.25 0.0825 3.25 -0.9375 3.25 C-0.6075 3.91 -0.2775 4.57 0.0625 5.25 C0.8875 5.518125 1.7125 5.78625 2.5625 6.0625 C5.0625 7.25 5.0625 7.25 6 9.75 C6.020625 10.575 6.04125 11.4 6.0625 12.25 C4.0625 14.25 4.0625 14.25 0.625 14.5625 C-2.9375 14.25 -2.9375 14.25 -4.875 12.875 C-5.9375 11.25 -5.9375 11.25 -5.9375 9.25 C-3.17473823 9.77268466 -0.6114124 10.35869587 2.0625 11.25 C2.0625 10.59 2.0625 9.93 2.0625 9.25 C0.0825 8.59 -1.8975 7.93 -3.9375 7.25 C-4.5625 4.875 -4.5625 4.875 -4.9375 2.25 C-2.9375 0.25 -2.9375 0.25 0 0 Z " fill="#7E7C7E" transform="translate(255.9375,160.75)"/>
<path d="M0 0 C1.65 0 3.3 0 5 0 C5 5.94 5 11.88 5 18 C3.35 18 1.7 18 0 18 C0 12.06 0 6.12 0 0 Z " fill="#868586" transform="translate(427,157)"/>
<path d="M0 0 C4.47971204 -0.3632199 4.47971204 -0.3632199 6.65625 1.15625 C8.53015399 3.72742059 8.29842721 5.5445625 8.1875 8.6875 C8.16042969 9.68136719 8.13335937 10.67523438 8.10546875 11.69921875 C8.07066406 12.45847656 8.03585937 13.21773437 8 14 C6.35 14 4.7 14 3 14 C3 10.7 3 7.4 3 4 C2.01 4 1.02 4 0 4 C0 2.68 0 1.36 0 0 Z " fill="#858688" transform="translate(271,161)"/>
<path d="M0 0 C2.475 0.495 2.475 0.495 5 1 C5.99 0.67 6.98 0.34 8 0 C8 1.65 8 3.3 8 5 C7.01 5.33 6.02 5.66 5 6 C4.67 8.64 4.34 11.28 4 14 C2.68 14 1.36 14 0 14 C0 9.38 0 4.76 0 0 Z " fill="#7B777A" transform="translate(331,161)"/>
<path d="M0 0 C5.875 0.875 5.875 0.875 7 2 C7.07244053 4.01964199 7.08377188 6.04167124 7.0625 8.0625 C7.05347656 9.16722656 7.04445313 10.27195313 7.03515625 11.41015625 C7.02355469 12.26480469 7.01195312 13.11945313 7 14 C5.68 14 4.36 14 3 14 C2.67 11.03 2.34 8.06 2 5 C1.01 4.67 0.02 4.34 -1 4 C-0.67 2.68 -0.34 1.36 0 0 Z " fill="#7D787D" transform="translate(402,161)"/>
<path d="M0 0 C5.28 1.32 10.56 2.64 16 4 C16 4.99 16 5.98 16 7 C9.54107286 7.40368295 4.93891422 6.5915262 -1 4 C-0.67 2.68 -0.34 1.36 0 0 Z " fill="#1559B4" transform="translate(115,79)"/>
<path d="M0 0 C4.75 0.75 4.75 0.75 7 3 C7.25 5.5 7.25 5.5 7 8 C6.34 8.66 5.68 9.32 5 10 C3.35 10 1.7 10 0 10 C0 6.7 0 3.4 0 0 Z " fill="#F8F8F2" transform="translate(221,161)"/>
<path d="M0 0 C0.33 0 0.66 0 1 0 C1 10.23 1 20.46 1 31 C0.67 31 0.34 31 0 31 C-0.33 23.41 -0.66 15.82 -1 8 C-1.99 8.495 -1.99 8.495 -3 9 C-2.01 6.03 -1.02 3.06 0 0 Z " fill="#DDE7F4" transform="translate(562,111)"/>
<path d="M0 0 C1.67542976 0.28604898 3.34385343 0.61781233 5 1 C5 2.65 5 4.3 5 6 C3.35 6 1.7 6 0 6 C-0.38218767 4.34385343 -0.71395102 2.67542976 -1 1 C-0.67 0.67 -0.34 0.34 0 0 Z " fill="#EBF2F6" transform="translate(383,165)"/>
<path d="M0 0 C1.67542976 0.28604898 3.34385343 0.61781233 5 1 C4.67 2.65 4.34 4.3 4 6 C2.35 6 0.7 6 -1 6 C-1.042721 4.33388095 -1.04063832 2.66617115 -1 1 C-0.67 0.67 -0.34 0.34 0 0 Z " fill="#F6F4EE" transform="translate(287,165)"/>
<path d="M0 0 C1.65 0.33 3.3 0.66 5 1 C4.67 2.65 4.34 4.3 4 6 C2.35 5.67 0.7 5.34 -1 5 C-0.67 3.35 -0.34 1.7 0 0 Z " fill="#F8F8F0" transform="translate(346,165)"/>
<path d="M0 0 C1.65 0.33 3.3 0.66 5 1 C4.67 2.65 4.34 4.3 4 6 C2.35 5.67 0.7 5.34 -1 5 C-0.67 3.35 -0.34 1.7 0 0 Z " fill="#F8F8F0" transform="translate(239,165)"/>
<path d="M0 0 C1.65 0 3.3 0 5 0 C5 1.98 5 3.96 5 6 C3.35 6 1.7 6 0 6 C0 4.02 0 2.04 0 0 Z " fill="#F6F7F6" transform="translate(318,165)"/>
<path d="M0 0 C1.32 0 2.64 0 4 0 C4 1.98 4 3.96 4 6 C2.35 6 0.7 6 -1 6 C-1.042721 4.33388095 -1.04063832 2.66617115 -1 1 C-0.67 0.67 -0.34 0.34 0 0 Z " fill="#F5F9F8" transform="translate(303,165)"/>
<path d="M0 0 C0.99 0 1.98 0 3 0 C3 0.66 3 1.32 3 2 C4.98 1.67 6.96 1.34 9 1 C8.67 3.31 8.34 5.62 8 8 C7.608125 7.38125 7.21625 6.7625 6.8125 6.125 C4.72282509 3.67503632 3.02536673 2.98120002 0 2 C0 1.34 0 0.68 0 0 Z " fill="#EAF3F5" transform="translate(255,164)"/>
<path d="M0 0 C0.391875 0.61875 0.78375 1.2375 1.1875 1.875 C3.27717491 4.32496368 4.97463327 5.01879998 8 6 C8 6.66 8 7.32 8 8 C3.545 7.01 3.545 7.01 -1 6 C-0.67 4.02 -0.34 2.04 0 0 Z " fill="#F6F1E5" transform="translate(250,164)"/>
<path d="M0 0 C2.97 0 5.94 0 9 0 C8.67 0.99 8.34 1.98 8 3 C8 2.34 8 1.68 8 1 C5.69 1.66 3.38 2.32 1 3 C0.67 2.01 0.34 1.02 0 0 Z " fill="#E9EFF2" transform="translate(416,169)"/>
</svg>
