<?xml version="1.0" encoding="UTF-8"?>
<svg version="1.1" xmlns="http://www.w3.org/2000/svg" width="722" height="218">
<path d="M0 0 C238.26 0 476.52 0 722 0 C722 71.94 722 143.88 722 218 C483.74 218 245.48 218 0 218 C0 146.06 0 74.12 0 0 Z " fill="#FEFEFE" transform="translate(0,0)"/>
<path d="M0 0 C7.39991213 4.10254196 12.91897289 8.8520697 16.09375 16.84375 C18.55465317 26.57017681 16.81226669 34.07853329 12 42.5 C7.45768339 48.43024668 2.21989695 52.96998401 -5.25 54.4375 C-14.28407643 55.40890607 -21.79151732 54.93462856 -29.25 49.4375 C-35.29270489 44.08173073 -39.57999979 37.60409954 -40.62890625 29.515625 C-41.0212889 19.54151116 -37.97821087 12.50666014 -31.25390625 5.23046875 C-22.18497391 -2.88383913 -11.11712276 -5.25790963 0 0 Z " fill="#F4F7FB" transform="translate(147.25,52.5625)"/>
<path d="M0 0 C26.4 0 26.4 0 33.875 4.875 C40.02613129 11.02613129 40.34022904 17.49140243 40.38720703 25.77832031 C40.26056123 32.04799882 38.89481789 36.95723579 35 42 C25.05012891 50.65206182 12.69964354 48 0 48 C0 32.16 0 16.32 0 0 Z " fill="#044DAE" transform="translate(176,86)"/>
<path d="M0 0 C3.96 0 7.92 0 12 0 C13.4592103 4.04135198 14.91740032 8.08306714 16.375 12.125 C16.7875 13.26710938 17.2 14.40921875 17.625 15.5859375 C18.02460937 16.69453125 18.42421875 17.803125 18.8359375 18.9453125 C19.20251465 19.96125488 19.5690918 20.97719727 19.94677734 22.02392578 C20.29434082 23.00603027 20.6419043 23.98813477 21 25 C21.37463379 26.03237793 21.74926758 27.06475586 22.13525391 28.12841797 C23 31 23 31 23 35 C23.66 35 24.32 35 25 35 C25.2475 33.7625 25.495 32.525 25.75 31.25 C27.67467544 22.58213545 30.85700137 14.2860873 34 6 C34.67735217 4.00359361 35.34838935 2.00495586 36 0 C39.96 0 43.92 0 48 0 C48 15.84 48 31.68 48 48 C45.36 48 42.72 48 40 48 C40 37.44 40 26.88 40 16 C39.34 16 38.68 16 38 16 C37.7525 17.216875 37.505 18.43375 37.25 19.6875 C35.07514935 29.42838038 31.89583393 38.81992324 28 48 C25.36 48 22.72 48 20 48 C19.60167969 46.85402344 19.20335937 45.70804688 18.79296875 44.52734375 C18.25794062 42.99735102 17.72277715 41.46740562 17.1875 39.9375 C16.79594727 38.80924805 16.79594727 38.80924805 16.39648438 37.65820312 C15.17339229 34.17012569 13.90076885 30.77174374 12.42578125 27.37890625 C11 24 11 24 9 17 C8.67 27.23 8.34 37.46 8 48 C5.36 48 2.72 48 0 48 C0 32.16 0 16.32 0 0 Z " fill="#054DAE" transform="translate(501,86)"/>
<path d="M0 0 C4.63837431 1.87539208 9.5948954 2.37882762 14.53125 3.0234375 C14.53125 4.3434375 14.53125 5.6634375 14.53125 7.0234375 C8.89502416 7.58706008 5.12090271 6.61660981 -0.15625 4.5234375 C-7.55046248 1.73870726 -14.93580542 0.25802381 -22.66015625 2.72265625 C-27.8776193 5.39336628 -31.41742912 9.21569299 -33.44140625 14.62109375 C-36.90899312 26.86248183 -36.81326338 38.9550555 -30.71875 50.2734375 C-27.17750031 54.60163156 -23.10992289 57.92932224 -18.46875 61.0234375 C-17.54643181 63.57617622 -16.78727605 66.03395666 -16.09375 68.6484375 C-15.660988 70.18513031 -15.22737197 71.72158283 -14.79296875 73.2578125 C-14.57431152 74.04478516 -14.3556543 74.83175781 -14.13037109 75.64257812 C-13.08517632 79.4037366 -12.01515088 83.15557191 -10.90625 86.8984375 C-10.72078613 87.56955566 -10.53532227 88.24067383 -10.34423828 88.93212891 C-9.47568422 91.83703454 -8.68664414 93.80289687 -6.5390625 95.9765625 C-3.28465624 97.6221868 -0.91452513 96.9005439 2.53125 96.0234375 C4.32407349 94.97183999 4.32407349 94.97183999 5.53125 93.0234375 C6.15984744 89.71965038 6.15984744 89.71965038 6.33984375 85.90625 C6.44840874 84.48045664 6.55713784 83.05467576 6.66601562 81.62890625 C6.82034304 79.38882783 6.96874643 77.14849319 7.11254883 74.90771484 C7.25659212 72.73918257 7.42232919 70.57307677 7.58984375 68.40625 C7.67548584 67.11090332 7.76112793 65.81555664 7.84936523 64.48095703 C8.62103772 60.56816588 9.63822131 58.74410306 12.53125 56.0234375 C16.15625 56.0234375 16.15625 56.0234375 19.53125 57.0234375 C21.91254286 60.59537679 21.95048345 62.66693755 22.27734375 66.921875 C22.39368804 68.30209955 22.51023072 69.68230738 22.62695312 71.0625 C22.7999055 73.2301698 22.96872184 75.39806597 23.13305664 77.56640625 C23.29528541 79.66510654 23.47307858 81.76207119 23.65234375 83.859375 C23.79820923 85.73955322 23.79820923 85.73955322 23.94702148 87.65771484 C24.55670896 91.17010582 25.34634802 93.2229749 27.53125 96.0234375 C30.88717863 97.36003895 30.88717863 97.36003895 34.53125 97.0234375 C39.59897561 93.13661709 40.97624302 88.85345591 42.65625 82.9609375 C42.9143042 82.11692383 43.1723584 81.27291016 43.43823242 80.40332031 C44.84664283 75.72144029 45.93598112 71.08034789 46.84375 66.2734375 C48.33139312 59.84789463 52.27157717 57.52988605 57.53125 54.0234375 C61.70327246 49.73552553 63.99346554 44.37982684 66.53125 39.0234375 C67.52125 39.0234375 68.51125 39.0234375 69.53125 39.0234375 C68.7320397 47.01554052 64.99206077 53.30258812 59.53125 59.0234375 C58.54125 59.59964844 57.55125 60.17585938 56.53125 60.76953125 C52.83577972 63.54594577 52.2062014 65.44509446 50.90625 69.8359375 C50.70588135 70.48812256 50.5055127 71.14030762 50.29907227 71.81225586 C49.26764269 75.22976132 48.35393116 78.6739119 47.47265625 82.1328125 C47.21766357 83.12704224 47.21766357 83.12704224 46.95751953 84.14135742 C46.49427302 85.98439361 46.05691133 87.83387952 45.62109375 89.68359375 C44.1240194 94.27140223 41.95913226 97.75874179 38.34375 100.9609375 C34.16644208 102.5390316 30.78272364 102.31834056 26.53125 101.0234375 C23.64658663 99.52610164 22.09556031 97.86909414 20.53125 95.0234375 C19.29604038 90.75575558 18.92534304 86.43173448 18.53125 82.0234375 C18.3476538 80.1847656 18.16266027 78.3462329 17.9765625 76.5078125 C17.46342513 71.34904245 16.98680258 66.18758736 16.53125 61.0234375 C15.54125 61.0234375 14.55125 61.0234375 13.53125 61.0234375 C13.45608154 61.89556885 13.38091309 62.7677002 13.3034668 63.66625977 C13.01645312 66.93057934 12.7188766 70.19358844 12.41430664 73.45629883 C12.28512108 74.86314732 12.16004245 76.27037969 12.03930664 77.67797852 C11.86407323 79.71227258 11.67365039 81.74468474 11.48046875 83.77734375 C11.37049561 84.99752197 11.26052246 86.2177002 11.1472168 87.47485352 C10.37788547 91.90697037 9.24828516 96.36460692 5.91796875 99.58203125 C1.99132078 101.61305606 -0.95504691 102.79172739 -5.46875 102.0234375 C-10.49510519 99.36242593 -13.27774268 96.55018032 -15.10961914 91.12573242 C-15.74559045 88.91253175 -16.33177828 86.69086859 -16.90625 84.4609375 C-17.34629343 82.84858577 -17.78770365 81.23660646 -18.23046875 79.625 C-18.97184907 76.8959583 -19.68148259 74.16693335 -20.36328125 71.421875 C-22.25288441 64.60549831 -24.5093545 61.50377061 -30.35546875 57.5234375 C-33.29433503 55.43744 -34.76498187 53.17856367 -36.46875 50.0234375 C-37.02369141 49.10884766 -37.02369141 49.10884766 -37.58984375 48.17578125 C-41.43236879 41.06245634 -40.97337704 33.91324116 -40.46875 26.0234375 C-40.39785156 24.86714844 -40.32695313 23.71085937 -40.25390625 22.51953125 C-39.29359828 13.38042059 -36.15373472 7.19065208 -29.27734375 1.07421875 C-20.2232438 -5.32480741 -9.70451653 -4.56112277 0 0 Z " fill="#1458B3" transform="translate(90.46875,62.9765625)"/>
<path d="M0 0 C11 0 11 0 13.7265625 2.53515625 C14.40093986 3.68760078 15.03229253 4.8660005 15.625 6.0625 C15.9748999 6.68286133 16.3247998 7.30322266 16.68530273 7.94238281 C17.42826454 9.26107817 18.15541559 10.58878838 18.86767578 11.92431641 C20.03347951 14.06137188 21.27755049 16.12939613 22.55859375 18.19921875 C29 28.61724536 29 28.61724536 29 31 C29.66 31 30.32 31 31 31 C31 20.77 31 10.54 31 0 C33.97 0 36.94 0 40 0 C40 15.84 40 31.68 40 48 C30 48 30 48 27.76660156 46.23095703 C27.3125293 45.41481934 26.85845703 44.59868164 26.390625 43.7578125 C25.86339844 42.85546875 25.33617187 41.953125 24.79296875 41.0234375 C24.28378906 40.06695312 23.77460938 39.11046875 23.25 38.125 C22.72535156 37.2071875 22.20070313 36.289375 21.66015625 35.34375 C20.60845663 33.50002968 19.56991598 31.64873856 18.54492188 29.79003906 C16.97765091 26.95963884 15.37388845 24.15634766 13.734375 21.3671875 C13.25709961 20.5510498 12.77982422 19.73491211 12.28808594 18.89404297 C11.13187746 16.86255965 11.13187746 16.86255965 9 16 C9 26.56 9 37.12 9 48 C6.03 48 3.06 48 0 48 C0 32.16 0 16.32 0 0 Z " fill="#074FAF" transform="translate(267,86)"/>
<path d="M0 0 C1.65322266 0.01740234 1.65322266 0.01740234 3.33984375 0.03515625 C4.44457031 0.04417969 5.54929687 0.05320312 6.6875 0.0625 C7.54214844 0.07410156 8.39679688 0.08570312 9.27734375 0.09765625 C11.34759075 5.03682423 13.29741315 9.94651661 14.77734375 15.09765625 C15.73518053 18.41918703 16.83221907 21.59045452 18.15234375 24.78515625 C19.94563682 29.15022619 21.52036633 33.56509921 23.02734375 38.03515625 C23.25019043 38.68637451 23.47303711 39.33759277 23.70263672 40.00854492 C24.64511007 42.83855621 25.27734375 45.09229224 25.27734375 48.09765625 C22.30734375 48.09765625 19.33734375 48.09765625 16.27734375 48.09765625 C13.27734375 40.47265625 13.27734375 40.47265625 13.27734375 37.09765625 C6.67734375 37.09765625 0.07734375 37.09765625 -6.72265625 37.09765625 C-7.38265625 40.06765625 -8.04265625 43.03765625 -8.72265625 46.09765625 C-9.05265625 46.75765625 -9.38265625 47.41765625 -9.72265625 48.09765625 C-12.69265625 48.09765625 -15.66265625 48.09765625 -18.72265625 48.09765625 C-17.0151918 39.56033401 -14.38258826 31.44804644 -11.2890625 23.31640625 C-9.2831472 18.00038299 -7.55087753 12.59654278 -5.796875 7.19335938 C-3.47403214 0.1246066 -3.47403214 0.1246066 0 0 Z " fill="#074FAF" transform="translate(372.72265625,85.90234375)"/>
<path d="M0 0 C10.56 0 21.12 0 32 0 C32 2.64 32 5.28 32 8 C24.74 8 17.48 8 10 8 C10 11.63 10 15.26 10 19 C16.27 19 22.54 19 29 19 C29 21.64 29 24.28 29 27 C22.73 27 16.46 27 10 27 C10 31.29 10 35.58 10 40 C17.26 40 24.52 40 32 40 C32 42.64 32 45.28 32 48 C21.44 48 10.88 48 0 48 C0 32.16 0 16.32 0 0 Z " fill="#0950B0" transform="translate(622,86)"/>
<path d="M0 0 C10.23 0 20.46 0 31 0 C31 2.64 31 5.28 31 8 C23.74 8 16.48 8 9 8 C9 11.63 9 15.26 9 19 C15.27 19 21.54 19 28 19 C28 21.64 28 24.28 28 27 C21.73 27 15.46 27 9 27 C9 31.29 9 35.58 9 40 C16.59 40 24.18 40 32 40 C32 42.64 32 45.28 32 48 C21.44 48 10.88 48 0 48 C0 32.16 0 16.32 0 0 Z " fill="#044DAE" transform="translate(227,86)"/>
<path d="M0 0 C2.6875 1.6875 2.6875 1.6875 4.6875 4.6875 C3.3675 6.3375 2.0475 7.9875 0.6875 9.6875 C-1.57047824 9.18572706 -3.51493271 8.59449038 -5.625 7.625 C-9.01182949 6.44354785 -11.74831552 6.42348633 -15.3125 6.6875 C-16.3025 7.3475 -17.2925 8.0075 -18.3125 8.6875 C-18.56280977 11.27130177 -18.56280977 11.27130177 -18.3125 13.6875 C-14.53423469 15.83192085 -11.11668236 17.01845367 -6.875 18 C-1.62888535 19.402781 2.58428425 21.04237393 5.6875 25.6875 C7.17696334 30.45843727 7.13823902 34.33528294 5.5625 39.0625 C2.81961425 42.90254005 0.17524519 45.19158494 -4.3125 46.6875 C-12.86259225 47.30618995 -19.98629903 47.57163398 -27.3125 42.6875 C-27.9725 42.0275 -28.6325 41.3675 -29.3125 40.6875 C-29.08506695 37.73087034 -28.70014062 36.13716312 -26.75 33.875 C-26.0384375 33.2871875 -26.0384375 33.2871875 -25.3125 32.6875 C-22.76665519 33.86250529 -20.75695557 35.10724468 -18.5 36.8125 C-14.71927936 39.03645332 -12.63185868 39.16742874 -8.3125 38.6875 C-5.95880193 37.80685073 -5.95880193 37.80685073 -4.3125 36.6875 C-4.14568891 33.77097826 -4.14568891 33.77097826 -4.3125 30.6875 C-7.6315017 27.3684983 -12.26761562 27.01375796 -16.734375 25.8828125 C-21.2156793 24.3857829 -25.1178552 22.58807127 -27.6875 18.5 C-28.7043418 13.92421188 -29.62064343 9.14743506 -27.33203125 4.84375 C-21.0740919 -3.01237079 -9.00555887 -3.62511904 0 0 Z " fill="#074FAF" transform="translate(485.3125,87.3125)"/>
<path d="M0 0 C4.95 0 9.9 0 15 0 C15 2.97 15 5.94 15 9 C18.3 9 21.6 9 25 9 C25.02685412 11.31243792 25.04632841 13.6249627 25.0625 15.9375 C25.07410156 17.22527344 25.08570313 18.51304688 25.09765625 19.83984375 C25 23 25 23 24 24 C20.99668982 24.14193337 18.00782866 24.04236378 15 24 C15 27.3 15 30.6 15 34 C10.05 34 5.1 34 0 34 C0 30.7 0 27.4 0 24 C-2.97 24 -5.94 24 -9 24 C-9 19.05 -9 14.1 -9 9 C-6.03 9 -3.06 9 0 9 C0 6.03 0 3.06 0 0 Z " fill="#1156B2" transform="translate(128,62)"/>
<path d="M0 0 C12.21 0 24.42 0 37 0 C37 2.64 37 5.28 37 8 C32.38 8 27.76 8 23 8 C23 21.2 23 34.4 23 48 C19.7 48 16.4 48 13 48 C13 34.8 13 21.6 13 8 C8.71 8 4.42 8 0 8 C0 5.36 0 2.72 0 0 Z " fill="#0F54B1" transform="translate(315,86)"/>
<path d="M0 0 C3.3 0 6.6 0 10 0 C10 13.2 10 26.4 10 40 C16.93 40 23.86 40 31 40 C31 42.64 31 45.28 31 48 C20.77 48 10.54 48 0 48 C0 32.16 0 16.32 0 0 Z " fill="#0D53B1" transform="translate(405,86)"/>
<path d="M0 0 C7.39991213 4.10254196 12.91897289 8.8520697 16.09375 16.84375 C18.55465317 26.57017681 16.81226669 34.07853329 12 42.5 C7.45768339 48.43024668 2.21989695 52.96998401 -5.25 54.4375 C-14.28407643 55.40890607 -21.79151732 54.93462856 -29.25 49.4375 C-35.29270489 44.08173073 -39.57999979 37.60409954 -40.62890625 29.515625 C-41.0212889 19.54151116 -37.97821087 12.50666014 -31.25390625 5.23046875 C-22.18497391 -2.88383913 -11.11712276 -5.25790963 0 0 Z M-25.25 5.4375 C-26.301875 6.13875 -27.35375 6.84 -28.4375 7.5625 C-32.81515293 11.47240371 -35.704411 17.02897492 -36.62890625 22.8046875 C-36.68782784 25.07513265 -36.54815804 27.18701946 -36.25 29.4375 C-36.16621094 30.11683594 -36.08242187 30.79617187 -35.99609375 31.49609375 C-34.95471378 37.1195456 -32.4242316 41.53619892 -28.25 45.4375 C-22.99588462 48.9058065 -16.89322734 52.55241005 -10.3828125 51.953125 C-1.97501547 49.92047077 5.09267275 46.9545896 9.75 39.4375 C13.53963744 33.1214376 13.53022267 26.6747379 12.75 19.4375 C10.65715703 11.4478416 4.30624679 6.51756887 -2.5625 2.5 C-10.87534457 0.1047736 -18.02362494 0.61461092 -25.25 5.4375 Z " fill="#1458B3" transform="translate(147.25,52.5625)"/>
<path d="M0 0 C13 0 13 0 16.625 1.5625 C21.16110778 6.21797904 22.16887923 10.24146315 22.375 16.5625 C22.17763733 22.5656144 20.92394696 26.07605304 16.625 30.375 C13 32 13 32 0 32 C0 21.44 0 10.88 0 0 Z " fill="#FAFBFD" transform="translate(185,94)"/>
<path d="M0 0 C2.97 0 5.94 0 9 0 C9 13.2 9 26.4 9 40 C15.93 40 22.86 40 30 40 C30 42.64 30 45.28 30 48 C20.1 48 10.2 48 0 48 C0 32.16 0 16.32 0 0 Z " fill="#024BAD" transform="translate(584,86)"/>
<path d="M0 0 C2.97 0 5.94 0 9 0 C9 15.84 9 31.68 9 48 C6.03 48 3.06 48 0 48 C0 32.16 0 16.32 0 0 Z " fill="#044DAE" transform="translate(562,86)"/>
<path d="M0 0 C2.31 0 4.62 0 7 0 C7.33 2.64 7.66 5.28 8 8 C10.97 8.33 13.94 8.66 17 9 C17 11.64 17 14.28 17 17 C14.03 17.33 11.06 17.66 8 18 C7.67 20.64 7.34 23.28 7 26 C4.69 26 2.38 26 0 26 C0 23.03 0 20.06 0 17 C-3.3 17 -6.6 17 -10 17 C-10 14.36 -10 11.72 -10 9 C-5.545 8.505 -5.545 8.505 -1 8 C-0.67 5.36 -0.34 2.72 0 0 Z " fill="#FAFBFD" transform="translate(132,66)"/>
<path d="M0 0 C0.66 0 1.32 0 2 0 C2.84080019 2.41429769 3.67281402 4.83103993 4.5 7.25 C4.73847656 7.93191406 4.97695313 8.61382812 5.22265625 9.31640625 C6.39421287 12.76413003 7 15.31702904 7 19 C2.71 19 -1.58 19 -6 19 C-4.29446483 12.50272314 -2.47390635 6.2436684 0 0 Z " fill="#E8EFF7" transform="translate(375,96)"/>
<path d="M0 0 C0.99 0.66 1.98 1.32 3 2 C2.76023437 3.21236328 2.76023437 3.21236328 2.515625 4.44921875 C1.03702671 14.63138424 0.77529743 25.49441923 5 35 C3.515 35.495 3.515 35.495 2 36 C-4.88595705 27.54905271 -3.55778883 17.0615565 -2.625 6.75 C-2 3 -2 3 0 0 Z " fill="#1558B3" transform="translate(61,76)"/>
<path d="M0 0 C5.28 1.32 10.56 2.64 16 4 C16 4.99 16 5.98 16 7 C9.48208608 7.3540919 4.82478551 7.03901852 -1 4 C-0.67 2.68 -0.34 1.36 0 0 Z " fill="#0E54B1" transform="translate(87,70)"/>
<path d="M0 0 C0.66 0 1.32 0 2 0 C2 10.56 2 21.12 2 32 C1.67 32 1.34 32 1 32 C0.67 23.75 0.34 15.5 0 7 C-0.99 7.495 -0.99 7.495 -2 8 C-1.34 5.36 -0.68 2.72 0 0 Z " fill="#BCCFE9" transform="translate(539,102)"/>
<path d="M0 0 C0.99 0.495 0.99 0.495 2 1 C2.6875 3.5 2.6875 3.5 3 6 C2.67 6.33 2.34 6.66 2 7 C1.84213692 8.85174706 1.74892644 10.7090911 1.68359375 12.56640625 C1.64169922 13.69111328 1.59980469 14.81582031 1.55664062 15.97460938 C1.51732422 17.15861328 1.47800781 18.34261719 1.4375 19.5625 C1.39431641 20.75037109 1.35113281 21.93824219 1.30664062 23.16210938 C1.20016454 26.10794784 1.09815159 29.0538743 1 32 C0.67 32 0.34 32 0 32 C0 21.44 0 10.88 0 0 Z " fill="#CFDDEF" transform="translate(509,102)"/>
</svg>
