<?xml version="1.0" standalone="no"?>
<!DOCTYPE svg PUBLIC "-//W3C//DTD SVG 20010904//EN"
 "http://www.w3.org/TR/2001/REC-SVG-20010904/DTD/svg10.dtd">
<svg version="1.0" xmlns="http://www.w3.org/2000/svg"
 width="124.000000pt" height="123.000000pt" viewBox="0 0 124.000000 123.000000"
 preserveAspectRatio="xMidYMid meet">

<g transform="translate(0.000000,123.000000) scale(0.100000,-0.100000)"
fill="#000000" stroke="none">
<path d="M849 1209 c-65 -10 -122 -42 -162 -91 -46 -57 -57 -80 -66 -139 -27
-172 103 -329 272 -329 116 0 204 57 258 165 27 56 31 72 27 127 -11 172 -161
294 -329 267z m146 -53 c93 -43 147 -124 148 -221 1 -107 -60 -198 -159 -235
-65 -24 -94 -25 -160 -5 -215 64 -235 366 -29 461 66 31 134 31 200 0z"/>
<path d="M827 1093 c-4 -3 -7 -23 -7 -44 0 -37 -1 -38 -42 -41 l-43 -3 -3 -72
-3 -73 45 0 45 0 3 -47 3 -48 70 0 70 0 3 47 3 47 47 3 47 3 3 58 c4 71 -7 87
-59 87 l-39 0 0 45 0 45 -68 0 c-38 0 -72 -3 -75 -7z m113 -73 l0 -50 45 0 45
0 0 -40 0 -40 -45 0 -45 0 0 -45 0 -45 -39 0 c-40 0 -40 0 -43 43 l-3 42 -47
3 -48 3 0 40 0 39 44 0 c48 0 56 9 56 66 0 33 1 34 40 34 l40 0 0 -50z"/>
<path d="M204 1096 c-99 -46 -140 -112 -154 -250 -18 -177 19 -271 148 -373
17 -13 35 -58 67 -167 25 -82 52 -160 60 -173 49 -74 152 -73 202 3 14 22 41
227 43 327 0 20 27 34 40 21 5 -5 16 -81 24 -168 10 -102 21 -168 31 -183 48
-73 152 -73 200 0 8 13 35 90 59 171 l45 148 57 51 c75 67 144 204 97 195 -9
-2 -23 -22 -31 -48 -11 -32 -36 -65 -86 -115 l-72 -70 -44 -154 c-56 -194 -84
-226 -164 -190 -34 16 -43 46 -56 179 -20 215 -25 230 -74 230 -47 0 -56 -27
-72 -197 -8 -87 -19 -168 -25 -180 -27 -51 -118 -54 -143 -5 -8 15 -33 92 -57
172 l-43 145 -72 70 c-91 88 -109 139 -102 280 6 109 28 165 85 216 70 63 163
69 276 19 64 -29 147 -38 147 -17 0 17 -20 27 -57 27 -13 0 -58 14 -100 30
-93 38 -158 39 -229 6z"/>
<path d="M406 1003 c-3 -8 -6 -16 -6 -18 0 -7 69 -27 118 -34 45 -7 52 -5 52
10 0 12 -12 19 -47 24 -27 4 -62 13 -80 20 -27 11 -32 11 -37 -2z"/>
<path d="M141 928 c-7 -18 -14 -74 -18 -124 -5 -84 -4 -95 21 -149 21 -46 29
-55 40 -46 11 9 10 18 -8 54 -17 34 -20 58 -19 128 1 47 7 98 13 114 8 22 8
32 -3 43 -12 12 -16 9 -26 -20z"/>
<path d="M211 576 c-9 -11 -8 -15 5 -20 18 -7 37 11 28 26 -8 12 -20 10 -33
-6z"/>
</g>
</svg>
